:SAMPLES-PER-SECOND 30
:FULLY-SPECIFIED
:DEGREES
330
root  -1.12044 6.00681 15.5536 -45.8951 -5.4998 0.835496
RightUpLeg  -88.2581 -10.4778 6.84753
RightLeg  88.5911 16.126 -8.7037
RightFoot  30.6426 3.36462 -8.65851
RightToes  5.82077e-011 -3.18055e-015 -2.98177e-016
Spine  31.5943 1.4503 6.31533
Spine1  15.0637 4.34421 -12.0289
HEad  -16.3844 16.8365 -14.6321
LeftShoulder1  -3.88251e-019 9.70628e-020 -3.87848e-018
LeftArm  28.4937 81.0426 -14.9006
LeftForeArm  9.55518 -13.2375 -3.58192
LeftHand  -12.1591 -9.76668 80.1326
RightShoulder  -0.485459 -1.23306 -5.2821
RightArm  -9.244 29.8147 38.4632
RightForeArm  -34.562 46.8748 -26.7754
RightHand  -0.154696 1.12296 -3.1554
LeftUpLeg  -88.451 8.9267 1.72219
LeftLeg  89.5775 -14.0106 10.8224
LeftFoot  32.6316 -1.14259 2.93461
LeftToes  5.91571e-011 -3.44359e-011 -3.93244e-011
331
root  -1.14078 6.00874 15.5546 -45.8797 -5.38376 0.884322
RightUpLeg  -88.3294 -10.6124 6.84592
RightLeg  88.6115 16.1329 -8.79328
RightFoot  30.6702 3.33161 -8.57126
RightToes  5.82077e-011 -3.18055e-015 -2.98177e-016
Spine  31.4222 1.54128 6.42106
Spine1  15.2897 4.48971 -11.9832
HEad  -15.8894 15.7995 -15.0845
LeftShoulder1  -3.88251e-019 9.70628e-020 -3.87848e-018
LeftArm  27.8856 80.7679 -15.868
LeftForeArm  9.27044 -13.1492 -3.63809
LeftHand  -12.3526 -9.8618 80.6629
RightShoulder  -0.396103 -0.592477 -4.59666
RightArm  -12.2896 27.624 37.5828
RightForeArm  -41.8061 47.0246 -26.4217
RightHand  -1.17013 -0.0620728 -23.4429
LeftUpLeg  -88.4551 8.91331 1.63708
LeftLeg  89.5497 -14.0051 10.812
LeftFoot  32.6821 -1.13074 2.90334
LeftToes  5.91571e-011 -3.44359e-011 -3.93244e-011
332
root  -1.16034 6.01946 15.5581 -45.7361 -5.18473 0.947605
RightUpLeg  -88.5067 -10.7651 6.74705
RightLeg  88.6773 16.1386 -8.72326
RightFoot  30.7248 3.32972 -8.55541
RightToes  5.82077e-011 -3.18055e-015 -2.98177e-016
Spine  31.2454 1.62222 6.31036
Spine1  15.2068 4.48424 -11.8447
HEad  -15.4309 15.1162 -15.5809
LeftShoulder1  -3.88251e-019 9.70628e-020 -3.87848e-018
LeftArm  28.1819 80.7132 -15.7977
LeftForeArm  9.28367 -13.0835 -3.70042
LeftHand  -12.828 -10.3051 81.1463
RightShoulder  -0.284544 -0.0629444 -3.59635
RightArm  -10.7583 25.3031 35.1215
RightForeArm  -51.0128 48.391 -27.1873
RightHand  -2.53982 1.34431 -41.7262
LeftUpLeg  -88.5699 8.83877 1.46072
LeftLeg  89.4969 -13.9978 10.8406
LeftFoot  32.7011 -1.09153 2.80931
LeftToes  5.91571e-011 -3.44359e-011 -3.93244e-011
333
root  -1.17426 6.02168 15.563 -45.719 -5.00186 1.03596
RightUpLeg  -88.5342 -10.7617 6.52171
RightLeg  88.7371 16.1411 -8.60628
RightFoot  30.8661 3.39817 -8.69492
RightToes  5.82077e-011 -3.18055e-015 -2.98177e-016
Spine  31.1264 1.60463 6.01893
Spine1  15.1515 4.31001 -11.6816
HEad  -14.9269 14.9998 -15.7813
LeftShoulder1  -3.88251e-019 9.70628e-020 -3.87848e-018
LeftArm  28.5764 80.8757 -15.2984
LeftForeArm  9.51044 -12.9992 -3.73096
LeftHand  -13.1426 -10.7138 81.0249
RightShoulder  -0.205601 0.289897 -2.93954
RightArm  -6.6497 22.3945 32.0143
RightForeArm  -55.4177 50.2874 -28.9341
RightHand  -3.75576 2.69538 -50.3852
LeftUpLeg  -88.5657 8.74803 1.30426
LeftLeg  89.4808 -13.9984 10.892
LeftFoot  32.6502 -1.06147 2.74119
LeftToes  5.91571e-011 -3.44359e-011 -3.93244e-011
334
root  -1.18356 6.01766 15.5739 -45.7975 -4.87888 1.08449
RightUpLeg  -88.4496 -10.6047 6.26976
RightLeg  88.7395 16.1468 -8.71384
RightFoot  31.0314 3.4471 -8.78077
RightToes  5.82077e-011 -3.18055e-015 -2.98177e-016
Spine  30.9812 1.52714 5.65404
Spine1  15.2685 4.05482 -11.4918
HEad  -14.4943 15.2352 -15.6013
LeftShoulder1  -3.88251e-019 9.70628e-020 -3.87848e-018
LeftArm  28.7228 81.1546 -14.8226
LeftForeArm  9.43842 -12.8931 -3.67253
LeftHand  -13.1552 -10.7244 81.0412
RightShoulder  -0.154604 0.588322 -2.62173
RightArm  -1.55022 18.3401 28.6536
RightForeArm  -53.656 52.6538 -31.9198
RightHand  -3.90879 3.35814 -48.3019
LeftUpLeg  -88.4827 8.65765 1.23724
LeftLeg  89.4897 -14.0056 10.9767
LeftFoot  32.612 -1.04634 2.70757
LeftToes  5.91571e-011 -3.44359e-011 -3.93244e-011
335
root  -1.18554 6.02133 15.5847 -45.7428 -4.85711 1.0612
RightUpLeg  -88.4729 -10.4082 6.14327
RightLeg  88.6933 16.1545 -8.99666
RightFoot  31.1202 3.39088 -8.62484
RightToes  5.82077e-011 -3.18055e-015 -2.98177e-016
Spine  30.6331 1.45916 5.21189
Spine1  15.4842 3.71541 -11.1199
HEad  -14.2205 15.5538 -15.4969
LeftShoulder1  -3.88251e-019 9.70628e-020 -3.87848e-018
LeftArm  29.0822 81.607 -14.1635
LeftForeArm  8.96344 -12.893 -3.58559
LeftHand  -13.117 -10.5658 81.4531
RightShoulder  -0.0575529 0.955006 -1.84797
RightArm  4.59586 13.6036 25.0746
RightForeArm  -47.4968 55.3403 -36.2899
RightHand  -3.60585 4.93081 -38.7641
LeftUpLeg  -88.5337 8.60804 1.2676
LeftLeg  89.4745 -14.0086 11.0643
LeftFoot  32.6519 -1.0182 2.63857
LeftToes  5.91571e-011 -3.44359e-011 -3.93244e-011
336
root  -1.1761 6.02555 15.5825 -45.6467 -4.92004 1.03418
RightUpLeg  -88.5321 -10.214 6.10662
RightLeg  88.619 16.1561 -9.23789
RightFoot  31.1586 3.31755 -8.438
RightToes  5.82077e-011 -3.18055e-015 -2.98177e-016
Spine  30.1422 1.35981 4.6878
Spine1  15.8708 3.27698 -10.6154
HEad  -14.0771 15.9393 -15.7281
LeftShoulder1  -3.88251e-019 9.70628e-020 -3.87848e-018
LeftArm  29.6592 82.2326 -13.352
LeftForeArm  8.57688 -13.0822 -3.54804
LeftHand  -13.1308 -10.6485 81.2115
RightShoulder  0.12381 1.43863 -0.305773
RightArm  11.4803 8.45768 21.5948
RightForeArm  -39.3968 58.2368 -42.367
RightHand  -3.24699 7.52667 -28.5022
LeftUpLeg  -88.6285 8.60341 1.34415
LeftLeg  89.4528 -14.0065 11.0889
LeftFoot  32.7025 -0.988997 2.56656
LeftToes  5.91571e-011 -3.44359e-011 -3.93244e-011
337
root  -1.16698 6.01888 15.5723 -45.7794 -4.94165 1.05257
RightUpLeg  -88.3906 -10.017 5.98535
RightLeg  88.5423 16.1539 -9.41967
RightFoot  31.2009 3.34004 -8.48444
RightToes  5.82077e-011 -3.18055e-015 -2.98177e-016
Spine  29.7517 1.17693 4.15458
Spine1  16.5667 2.86069 -10.2346
HEad  -13.8943 16.3207 -15.948
LeftShoulder1  -3.88251e-019 9.70628e-020 -3.87848e-018
LeftArm  29.2231 82.79 -13.5236
LeftForeArm  8.42217 -13.3186 -3.53468
LeftHand  -13.0442 -10.8529 80.0932
RightShoulder  0.404255 2.20807 1.76833
RightArm  17.3226 1.89983 18.5876
RightForeArm  -29.4849 61.1934 -50.9531
RightHand  -2.60353 11.1187 -18.3175
LeftUpLeg  -88.5098 8.5662 1.39357
LeftLeg  89.4826 -14.0083 11.0349
LeftFoot  32.6569 -0.991109 2.57411
LeftToes  5.91571e-011 -3.44359e-011 -3.93244e-011
338
root  -1.17706 6.02126 15.569 -45.9877 -4.86104 1.05223
RightUpLeg  -88.153 -9.87262 5.78073
RightLeg  88.5319 16.1573 -9.52304
RightFoot  31.1635 3.37027 -8.5657
RightToes  5.82077e-011 -3.18055e-015 -2.98177e-016
Spine  29.5058 1.03998 3.71209
Spine1  17.399 2.61812 -9.86869
HEad  -13.4787 16.1739 -16.0952
LeftShoulder1  -3.88251e-019 9.70628e-020 -3.87848e-018
LeftArm  26.4745 83.0403 -16.175
LeftForeArm  8.02585 -13.4219 -3.55425
LeftHand  -12.8914 -10.8061 79.5932
RightShoulder  0.903318 3.55178 4.80837
RightArm  21.2316 -6.51652 15.1493
RightForeArm  -21.1181 63.6516 -61.7087
RightHand  -1.4382 14.6958 -8.31415
LeftUpLeg  -88.2981 8.46378 1.41906
LeftLeg  89.5272 -14.0123 10.9807
LeftFoot  32.5159 -0.979775 2.55489
LeftToes  5.91571e-011 -3.44359e-011 -3.93244e-011
339
root  -1.20254 6.04837 15.5673 -45.9345 -4.74168 1.01816
RightUpLeg  -88.1192 -9.8411 5.61602
RightLeg  88.6197 16.1644 -9.41117
RightFoot  30.9994 3.28665 -8.39408
RightToes  5.82077e-011 -3.18055e-015 -2.98177e-016
Spine  29.2639 1.18582 3.4058
Spine1  18.1062 2.55334 -8.98645
HEad  -12.8758 14.9347 -16.9076
LeftShoulder1  -3.88251e-019 9.70628e-020 -3.87848e-018
LeftArm  21.4879 82.9361 -21.6305
LeftForeArm  7.38544 -13.3774 -3.75181
LeftHand  -12.9225 -10.6286 80.3697
RightShoulder  1.77567 5.39718 9.52145
RightArm  24.421 -15.5521 9.42019
RightForeArm  -18.6465 64.9774 -70.612
RightHand  -0.5244 13.8566 -3.39668
LeftUpLeg  -88.2899 8.35512 1.43141
LeftLeg  89.4753 -14.0073 11.0393
LeftFoot  32.3614 -0.878769 2.3223
LeftToes  5.91571e-011 -3.44359e-011 -3.93244e-011
340
root  -1.22039 6.06114 15.5532 -45.8324 -4.56718 1.09244
RightUpLeg  -88.2211 -9.88447 5.4162
RightLeg  88.7069 16.1696 -9.25849
RightFoot  30.9003 3.20276 -8.20785
RightToes  5.82077e-011 -3.18055e-015 -2.98177e-016
Spine  29.0714 1.68185 3.17828
Spine1  18.7863 2.55315 -7.35753
HEad  -12.2842 12.8351 -18.765
LeftShoulder1  -3.88251e-019 9.70628e-020 -3.87848e-018
LeftArm  15.3718 82.5067 -28.8199
LeftForeArm  7.1736 -13.1651 -4.22117
LeftHand  -13.0968 -10.6779 80.9574
RightShoulder  2.85891 7.03692 14.9455
RightArm  27.7201 -24.6882 1.38882
RightForeArm  -17.775 65.2342 -72.8029
RightHand  -0.664045 9.4955 -5.36678
LeftUpLeg  -88.3281 8.24688 1.31198
LeftLeg  89.3347 -13.9946 11.23
LeftFoot  32.2294 -0.731123 1.97533
LeftToes  5.91571e-011 -3.44359e-011 -3.93244e-011
341
root  -1.2241 6.02307 15.5368 -46.0829 -4.31384 1.29784
RightUpLeg  -88.167 -9.91224 5.09617
RightLeg  88.7321 16.1784 -9.34696
RightFoot  30.9795 3.24412 -8.29387
RightToes  5.82077e-011 -3.18055e-015 -2.98177e-016
Spine  29.0404 2.32382 2.99068
Spine1  19.6211 2.49579 -5.33348
HEad  -11.7414 10.8826 -20.7641
LeftShoulder1  -3.88251e-019 9.70628e-020 -3.87848e-018
LeftArm  9.35556 81.8608 -36.0717
LeftForeArm  7.4176 -12.6625 -4.82713
LeftHand  -13.0377 -10.7481 80.4409
RightShoulder  3.66399 7.88125 18.8776
RightArm  31.1019 -35.0241 -6.91222
RightForeArm  -12.6264 64.6036 -68.7078
RightHand  -1.08074 6.62409 -10.3979
LeftUpLeg  -88.111 8.11971 1.04654
LeftLeg  89.2596 -13.9931 11.4232
LeftFoot  32.1023 -0.66011 1.81001
LeftToes  5.91571e-011 -3.44359e-011 -3.93244e-011
